<svg width="30" height="30" viewBox="0 0 30 30" fill="none" xmlns="http://www.w3.org/2000/svg">
<g opacity="0.55">
<path d="M27.5 20.9246C27.5 22.1371 26.5125 23.2496 25.3 23.3996L24.9125 23.4496C22.8625 23.7246 19.975 24.5746 17.65 25.5496C16.8375 25.8871 15.9375 25.2746 15.9375 24.3871V6.99961C15.9375 6.53711 16.2 6.11211 16.6125 5.88711C18.9 4.64961 22.3625 3.54961 24.7125 3.34961H24.7875C26.2875 3.34961 27.5 4.56211 27.5 6.06211V20.9246Z" fill="url(#paint0_linear_77_476)"/>
<path fill-rule="evenodd" clip-rule="evenodd" d="M5.28535 3.34961H5.19785C3.69785 3.34961 2.48535 4.56211 2.48535 6.06211V20.9246C2.48535 22.1371 3.47285 23.2496 4.68535 23.3996L5.07285 23.4496C7.12285 23.7246 10.0104 24.5746 12.3354 25.5496C13.1479 25.8871 14.0479 25.2746 14.0479 24.3871V6.99961C14.0479 6.52461 13.7979 6.11211 13.3854 5.88711C11.0979 4.64961 7.63535 3.54961 5.28535 3.34961Z" fill="url(#paint1_linear_77_476)"/>
<path fill-rule="evenodd" clip-rule="evenodd" d="M9.06035 9.67461C9.57285 9.67461 9.99785 10.0996 9.99785 10.6121C9.99785 11.1371 9.57285 11.5496 9.06035 11.5496H6.24785C5.73535 11.5496 5.31035 11.1371 5.31035 10.6121C5.31035 10.0996 5.73535 9.67461 6.24785 9.67461H9.06035Z" fill="white"/>
<path fill-rule="evenodd" clip-rule="evenodd" d="M6.24785 15.2996C5.73535 15.2996 5.31035 14.8871 5.31035 14.3621C5.31035 13.8496 5.73535 13.4246 6.24785 13.4246H9.99785C10.5104 13.4246 10.9354 13.8496 10.9354 14.3621C10.9354 14.8871 10.5104 15.2996 9.99785 15.2996H6.24785Z" fill="white"/>
</g>
<defs>
<linearGradient id="paint0_linear_77_476" x1="21.7188" y1="3.34961" x2="21.7188" y2="25.6437" gradientUnits="userSpaceOnUse">
<stop stop-color="#6891FD"/>
<stop offset="1" stop-color="#A68AF9"/>
</linearGradient>
<linearGradient id="paint1_linear_77_476" x1="8.2666" y1="3.34961" x2="8.2666" y2="25.6437" gradientUnits="userSpaceOnUse">
<stop stop-color="#6891FD"/>
<stop offset="1" stop-color="#A68AF9"/>
</linearGradient>
</defs>
</svg>
