<svg width="40" height="40" viewBox="0 0 40 40" fill="none" xmlns="http://www.w3.org/2000/svg">
<path fill-rule="evenodd" clip-rule="evenodd" d="M23.0673 5.11674C20.9699 3.41674 17.6928 3.40007 15.6118 5.10007L4.87923 13.8501C3.33898 15.1001 2.405 17.6001 2.73271 19.5667L4.7973 32.1334C5.27249 34.95 7.84503 37.1667 10.647 37.1667H28.0158C30.7849 37.1667 33.4066 34.9 33.8818 32.1167L35.9464 19.5501C36.2414 17.6001 35.3074 15.1001 33.7999 13.8501L23.0673 5.11674ZM20 31.2501C19.3166 31.2501 18.75 30.6834 18.75 30.0001V25.0001C18.75 24.3167 19.3166 23.7501 20 23.7501C20.6833 23.7501 21.25 24.3167 21.25 25.0001V30.0001C21.25 30.6834 20.6833 31.2501 20 31.2501Z" fill="url(#paint0_linear_77_469)"/>
<defs>
<linearGradient id="paint0_linear_77_469" x1="19.334" y1="3.83337" x2="19.334" y2="37.1667" gradientUnits="userSpaceOnUse">
<stop stop-color="#6891FD"/>
<stop offset="1" stop-color="#A68AF9"/>
</linearGradient>
</defs>
</svg>
