<svg width="20" height="20" viewBox="0 0 20 20" fill="none" xmlns="http://www.w3.org/2000/svg">
<path d="M1.66675 18.3333H18.3334" stroke="#302D63" stroke-width="1.5" stroke-linecap="round" stroke-linejoin="round"/>
<path d="M2.45825 18.3333L2.49992 8.3083C2.49992 7.79997 2.74159 7.31668 3.14159 7.00001L8.97492 2.45834C9.57492 1.99167 10.4166 1.99167 11.0249 2.45834L16.8583 6.99167C17.2666 7.30834 17.4999 7.79164 17.4999 8.3083V18.3333" stroke="#302D63" stroke-width="1.5" stroke-linejoin="round"/>
<path d="M9.16675 14.1667C8.47508 14.1667 7.91675 14.725 7.91675 15.4167V18.3334H12.0834V15.4167C12.0834 14.725 11.5251 14.1667 10.8334 14.1667H9.16675Z" stroke="#302D63" stroke-width="1.5" stroke-linejoin="round"/>
<path d="M6.25008 11.4584C5.79175 11.4584 5.41675 11.0834 5.41675 10.625V9.37502C5.41675 8.91669 5.79175 8.54169 6.25008 8.54169H7.91675C8.37508 8.54169 8.75008 8.91669 8.75008 9.37502V10.625C8.75008 11.0834 8.37508 11.4584 7.91675 11.4584H6.25008Z" stroke="#302D63" stroke-width="1.5" stroke-linejoin="round"/>
<path d="M12.0833 11.4584C11.625 11.4584 11.25 11.0834 11.25 10.625V9.37502C11.25 8.91669 11.625 8.54169 12.0833 8.54169H13.75C14.2083 8.54169 14.5833 8.91669 14.5833 9.37502V10.625C14.5833 11.0834 14.2083 11.4584 13.75 11.4584H12.0833Z" stroke="#302D63" stroke-width="1.5" stroke-linejoin="round"/>
<path d="M15.8333 5.83331L15.8083 3.33331H12.1416" stroke="#302D63" stroke-width="1.5" stroke-linecap="round" stroke-linejoin="round"/>
</svg>
