<svg width="15" height="15" viewBox="0 0 15 15" fill="none" xmlns="http://www.w3.org/2000/svg">
<path d="M5 11.875C2.5 11.875 1.25 11.25 1.25 8.125V5C1.25 2.5 2.5 1.25 5 1.25H10C12.5 1.25 13.75 2.5 13.75 5V8.125C13.75 10.625 12.5 11.875 10 11.875H9.6875C9.49375 11.875 9.30625 11.9688 9.1875 12.125L8.25 13.375C7.8375 13.925 7.1625 13.925 6.75 13.375L5.8125 12.125C5.7125 11.9875 5.48125 11.875 5.3125 11.875H5Z" stroke="#6891FD" stroke-width="2" stroke-linecap="round" stroke-linejoin="round"/>
<path d="M9.99779 6.875H10.0034" stroke="#6891FD" stroke-width="2.5" stroke-linecap="round" stroke-linejoin="round"/>
<path d="M7.49718 6.875H7.50279" stroke="#6891FD" stroke-width="2.5" stroke-linecap="round" stroke-linejoin="round"/>
<path d="M4.99657 6.875H5.00218" stroke="#6891FD" stroke-width="2.5" stroke-linecap="round" stroke-linejoin="round"/>
</svg>
