<svg width="30" height="30" viewBox="0 0 30 30" fill="none" xmlns="http://www.w3.org/2000/svg">
<path opacity="0.55" d="M23.5755 24.9875C23.7005 26.025 22.588 26.75 21.7005 26.2125L17.3755 23.6375C17.0755 23.4625 17.0005 23.0875 17.163 22.7875C17.788 21.6375 18.1255 20.3375 18.1255 19.0375C18.1255 14.4625 14.2005 10.7375 9.37548 10.7375C8.38798 10.7375 7.42548 10.8875 6.52548 11.1875C6.06298 11.3375 5.61298 10.9125 5.72548 10.4375C6.86298 5.8875 11.238 2.5 16.463 2.5C22.563 2.5 27.5005 7.1125 27.5005 12.8C27.5005 16.175 25.763 19.1625 23.088 21.0375L23.5755 24.9875Z" fill="#6891FD"/>
<path opacity="0.55" d="M14.775 22.9873C13.5375 24.4873 11.575 25.4498 9.375 25.4498L6.1125 27.3873C5.5625 27.7248 4.8625 27.2623 4.9375 26.6248L5.25 24.1623C3.575 22.9998 2.5 21.1373 2.5 19.0373C2.5 16.8373 3.675 14.8998 5.475 13.7498C6.5875 13.0248 7.925 12.6123 9.375 12.6123C13.175 12.6123 16.25 15.4873 16.25 19.0373C16.25 20.5248 15.7 21.8998 14.775 22.9873Z" fill="#A68AF9"/>
</svg>
