<svg width="459" height="459" viewBox="0 0 459 459" fill="none" xmlns="http://www.w3.org/2000/svg">
<g clip-path="url(#clip0_4019_254)">
<path d="M408 0H51C22.95 0 0 22.95 0 51V408C0 436.05 22.95 459 51 459H408C436.05 459 459 436.05 459 408V51C459 22.95 436.05 0 408 0ZM173.4 265.2V357H127.5V102H237.15C275.4 102 293.25 109.65 308.549 124.95C326.4 140.25 331.499 160.65 331.499 183.6C331.499 209.1 323.849 229.5 308.549 242.25C293.249 255 275.4 262.65 237.15 262.65H173.4V265.2Z" fill="#A8A8A7" stroke="#A8A8A7"/>
<path d="M173.4 229.5V137.7H232.05C249.901 137.7 262.651 142.8 270.3 153C277.95 163.2 283.05 170.85 283.05 183.6C283.05 198.9 277.95 206.55 270.3 216.75C262.651 224.4 252.45 229.5 234.6 229.5H173.4Z" fill="#A8A8A7" stroke="#A8A8A7"/>
</g>
<defs>
<clipPath id="clip0_4019_254">
<rect width="459" height="459" fill="white"/>
</clipPath>
</defs>
</svg>
