<svg width="16" height="16" viewBox="0 0 16 16" fill="#F6AF4A" xmlns="http://www.w3.org/2000/svg">
<path d="M6.16669 14.6667H9.36002C11.5334 14.6667 13.0267 12.9134 12.6667 10.7667C12.2867 8.51335 10.1134 6.66669 7.82669 6.66669C5.34669 6.66669 3.14669 8.69335 2.94002 11.1667C2.78002 13.0934 4.23335 14.6667 6.16669 14.6667Z" stroke="#F6AF4A" stroke-linecap="round" stroke-linejoin="round"/>
<path fill-rule="evenodd" clip-rule="evenodd" d="M6.9799 5.00002C6.05942 5.00002 5.31323 4.25383 5.31323 3.33335C5.31323 2.41288 6.05942 1.66669 6.9799 1.66669C7.90037 1.66669 8.64657 2.41288 8.64657 3.33335C8.64657 4.25383 7.90037 5.00002 6.9799 5.00002Z" stroke="#F6AF4A" stroke-linecap="round" stroke-linejoin="round"/>
<path fill-rule="evenodd" clip-rule="evenodd" d="M11.5333 5.79997C10.7969 5.79997 10.2 5.20301 10.2 4.46663C10.2 3.73025 10.7969 3.1333 11.5333 3.1333C12.2697 3.1333 12.8666 3.73025 12.8666 4.46663C12.8666 5.20301 12.2697 5.79997 11.5333 5.79997Z" stroke="#F6AF4A" stroke-linecap="round" stroke-linejoin="round"/>
<path fill-rule="evenodd" clip-rule="evenodd" d="M14 8.46661C13.4477 8.46661 13 8.0189 13 7.46661C13 6.91433 13.4477 6.46661 14 6.46661C14.5523 6.46661 15 6.91433 15 7.46661C15 8.0189 14.5523 8.46661 14 8.46661Z" stroke="#F6AF4A" stroke-linecap="round" stroke-linejoin="round"/>
<path fill-rule="evenodd" clip-rule="evenodd" d="M2.64657 7.13328C1.91019 7.13328 1.31323 6.53633 1.31323 5.79995C1.31323 5.06357 1.91019 4.46661 2.64657 4.46661C3.38295 4.46661 3.9799 5.06357 3.9799 5.79995C3.9799 6.53633 3.38295 7.13328 2.64657 7.13328Z" stroke="#F6AF4A" stroke-linecap="round" stroke-linejoin="round"/>
</svg>
