<svg width="22" height="22" viewBox="0 0 22 22" fill="none" xmlns="http://www.w3.org/2000/svg">
<path d="M3 9.80077C3 8.9744 3.67966 8.29106 4.51924 8.29106C5.96652 8.29106 6.55822 7.27399 5.83058 6.02649C5.41479 5.31137 5.66267 4.3817 6.3903 3.96852L7.77361 3.18188C8.4053 2.80843 9.22089 3.03091 9.5967 3.65863L9.68466 3.8096C10.4043 5.0571 11.5877 5.0571 12.3153 3.8096L12.4033 3.65863C12.7791 3.03091 13.5947 2.80843 14.2264 3.18188L15.6097 3.96852C16.3373 4.3817 16.5852 5.31137 16.1694 6.02649C15.4418 7.27399 16.0335 8.29106 17.4808 8.29106C18.3123 8.29106 19 8.96645 19 9.80077V11.1992C19 12.0256 18.3203 12.7089 17.4808 12.7089C16.0335 12.7089 15.4418 13.726 16.1694 14.9735C16.5852 15.6966 16.3373 16.6183 15.6097 17.0315L14.2264 17.8181C13.5947 18.1916 12.7791 17.9691 12.4033 17.3414L12.3153 17.1904C11.5957 15.9429 10.4123 15.9429 9.68466 17.1904L9.5967 17.3414C9.22089 17.9691 8.4053 18.1916 7.77361 17.8181L6.3903 17.0315C5.66267 16.6183 5.41479 15.6886 5.83058 14.9735C6.55822 13.726 5.96652 12.7089 4.51924 12.7089C3.67966 12.7089 3 12.0256 3 11.1992V9.80077Z" stroke="#302D63" stroke-linecap="round" stroke-linejoin="round"/>
<path fill-rule="evenodd" clip-rule="evenodd" d="M10.75 13.5C9.23122 13.5 8 12.2688 8 10.75C8 9.23122 9.23122 8 10.75 8C12.2688 8 13.5001 9.23122 13.5001 10.75C13.5001 12.2688 12.2688 13.5 10.75 13.5Z" stroke="#302D63" stroke-linecap="round" stroke-linejoin="round"/>
</svg>
