<svg width="18" height="18" viewBox="0 0 18 18" fill="none" xmlns="http://www.w3.org/2000/svg">
<path d="M3.37496 3.37497C5.99902 2.06322 8.15621 3.65622 8.99996 4.78122C9.84371 3.65622 12.0009 2.06322 14.625 3.37497C18 5.06247 17.1562 9.28122 14.625 11.8125C13.3897 13.0477 11.2145 15.2229 9.62377 16.4328C9.44607 16.5678 9.22807 16.639 9.00495 16.6348C8.78184 16.6306 8.56665 16.5513 8.39414 16.4098C6.93558 15.2325 4.59277 13.0303 3.37496 11.8125C0.843707 9.28122 -4.29153e-05 5.06247 3.37496 3.37497Z" fill="white"/>
<path d="M8.99996 4.78125V6.49688C9.71433 4.98656 11.489 2.97 14.4326 3.28331C11.8957 2.14144 9.8229 3.68381 8.99996 4.78125ZM6.71958 3.11456C5.77121 2.78438 4.62652 2.74894 3.37496 3.375C-4.31538e-05 5.0625 0.843707 9.28125 3.37496 11.8125C4.59277 13.0303 6.93558 15.2325 8.39415 16.4098C8.56672 16.5513 8.78194 16.6305 9.00505 16.6345C9.22816 16.6386 9.44614 16.5674 9.62377 16.4323C9.76665 16.3236 9.91383 16.2077 10.0653 16.0847C8.45996 14.8793 6.20658 12.9803 4.98314 11.8873C2.19483 9.39488 1.26502 5.24138 4.98314 3.57975C5.53226 3.32975 6.11903 3.17255 6.71958 3.11456Z" fill="white"/>
<path d="M11.8612 9.41314C12.6242 9.85366 13.8447 9.16803 14.5873 7.88175C15.33 6.59547 15.3135 5.19563 14.5505 4.75511C13.7875 4.3146 12.5669 5.00022 11.8243 6.2865C11.0817 7.57278 11.0982 8.97262 11.8612 9.41314Z" fill="white"/>
</svg>
